<svg width="18.299316" height="15.989605" viewBox="0 0 18.2993 15.9896" fill="none" xmlns="http://www.w3.org/2000/svg" xmlns:xlink="http://www.w3.org/1999/xlink">
	<desc>
			Created with Pixso.
	</desc>
	<defs/>
	<path id="path" d="M10.8761 14.7056L10.8756 14.7339C10.5738 15.026 10.1072 15.0184 9.81512 14.7165C9.52301 14.4147 9.5307 13.9481 9.83252 13.656L9.86078 13.6565L10.8761 14.7056ZM6.00494 9.99161L6.00446 10.0199C5.70264 10.312 5.23602 10.3043 4.94391 10.0025C4.65186 9.70069 4.65948 9.23406 4.9613 8.94199L4.98962 8.94244L6.00494 9.99161Z" fill="#000000" fill-opacity="0" fill-rule="nonzero"/>
	<path id="path" d="M10.3541 14.195C10.3541 14.195 15.2252 9.48093 16.443 8.30239C17.6608 7.12389 18.2697 4.1776 16.1385 2.11523C14.0074 0.0528336 10.963 0.642082 9.74512 1.82059C8.52734 2.9991 2.13391 9.18631 1.52502 9.77556C0.916138 10.3648 0.00280762 12.4272 1.82947 14.195C3.65619 15.9627 5.78735 15.0788 6.39624 14.4896C7.00513 13.9004 13.7029 7.41852 14.3118 6.82927C14.9208 6.24002 15.2252 4.76689 14.3118 3.88297C13.3985 2.9991 11.8763 3.29372 11.2674 3.88297C10.6585 4.47227 5.48291 9.48093 5.48291 9.48093" stroke="#FFFFFF" stroke-opacity="1.000000" stroke-width="1.500000" stroke-linejoin="round" stroke-linecap="round"/>
</svg>
