<svg width="22.000000" height="22.000000" viewBox="0 0 22 22" fill="none" xmlns="http://www.w3.org/2000/svg" xmlns:xlink="http://www.w3.org/1999/xlink">
	<desc>
			Created with Pixso.
	</desc>
	<defs>
		<clipPath id="clip2_1007">
			<rect id="Посмотреть список" width="22.000000" height="22.000000" fill="white" fill-opacity="0"/>
		</clipPath>
	</defs>
	<g clip-path="url(#clip2_1007)">
		<rect id="rect" x="1.833313" y="2.750000" rx="3.000000" width="18.333334" height="16.500000" fill="#000000" fill-opacity="0"/>
		<rect id="rect" x="1.833313" y="2.750000" rx="3.000000" width="18.333334" height="16.500000" stroke="#8264FE" stroke-opacity="1.000000" stroke-width="1.500000" stroke-linejoin="round"/>
		<path id="path" d="M1.85332 7.14667L1.83331 7.16669C1.41331 7.16669 1.08331 6.83667 1.08331 6.41669C1.08331 5.9967 1.41331 5.66669 1.83331 5.66669L1.85332 5.68671L1.85332 7.14667ZM20.1466 5.68671L20.1666 5.66669C20.5866 5.66669 20.9166 5.9967 20.9166 6.41669C20.9166 6.83667 20.5866 7.16669 20.1666 7.16669L20.1466 7.14667L20.1466 5.68671Z" fill="#000000" fill-opacity="0" fill-rule="nonzero"/>
		<path id="path" d="M1.83331 6.41669L20.1666 6.41669" stroke="#8264FE" stroke-opacity="1.000000" stroke-width="1.500000" stroke-linejoin="round" stroke-linecap="round"/>
		<path id="path" d="M9.18669 11.73L9.16669 11.75C8.74669 11.75 8.41669 11.42 8.41669 11C8.41669 10.58 8.74669 10.25 9.16669 10.25L9.18669 10.27L9.18669 11.73ZM16.48 10.27L16.5 10.25C16.92 10.25 17.25 10.58 17.25 11C17.25 11.42 16.92 11.75 16.5 11.75L16.48 11.73L16.48 10.27Z" fill="#000000" fill-opacity="0" fill-rule="nonzero"/>
		<path id="path" d="M9.16669 11L16.5 11" stroke="#8264FE" stroke-opacity="1.000000" stroke-width="1.500000" stroke-linejoin="round" stroke-linecap="round"/>
		<path id="path" d="M9.18669 15.3967L9.16669 15.4167C8.74669 15.4167 8.41669 15.0867 8.41669 14.6667C8.41669 14.2467 8.74669 13.9167 9.16669 13.9167L9.18669 13.9367L9.18669 15.3967ZM16.48 13.9367L16.5 13.9167C16.92 13.9167 17.25 14.2467 17.25 14.6667C17.25 15.0867 16.92 15.4167 16.5 15.4167L16.48 15.3967L16.48 13.9367Z" fill="#000000" fill-opacity="0" fill-rule="nonzero"/>
		<path id="path" d="M9.16669 14.6667L16.5 14.6667" stroke="#8264FE" stroke-opacity="1.000000" stroke-width="1.500000" stroke-linejoin="round" stroke-linecap="round"/>
		<path id="path" d="M5.52 11.73L5.5 11.75C5.08 11.75 4.75 11.42 4.75 11C4.75 10.58 5.08 10.25 5.5 10.25L5.52 10.27L5.52 11.73ZM6.39667 10.27L6.41667 10.25C6.83667 10.25 7.16667 10.58 7.16667 11C7.16667 11.42 6.83667 11.75 6.41667 11.75L6.39667 11.73L6.39667 10.27Z" fill="#000000" fill-opacity="0" fill-rule="nonzero"/>
		<path id="path" d="M5.5 11L6.41667 11" stroke="#8264FE" stroke-opacity="1.000000" stroke-width="1.500000" stroke-linejoin="round" stroke-linecap="round"/>
		<path id="path" d="M5.52 15.3967L5.5 15.4167C5.08 15.4167 4.75 15.0867 4.75 14.6667C4.75 14.2467 5.08 13.9167 5.5 13.9167L5.52 13.9367L5.52 15.3967ZM6.39667 13.9367L6.41667 13.9167C6.83667 13.9167 7.16667 14.2467 7.16667 14.6667C7.16667 15.0867 6.83667 15.4167 6.41667 15.4167L6.39667 15.3967L6.39667 13.9367Z" fill="#000000" fill-opacity="0" fill-rule="nonzero"/>
		<path id="path" d="M5.5 14.6667L6.41667 14.6667" stroke="#8264FE" stroke-opacity="1.000000" stroke-width="1.500000" stroke-linejoin="round" stroke-linecap="round"/>
	</g>
</svg>
