<svg width="24.000000" height="24.000000" viewBox="0 0 24 24" fill="none" xmlns="http://www.w3.org/2000/svg" xmlns:xlink="http://www.w3.org/1999/xlink">
	<desc>
			Created with Pixso.
	</desc>
	<defs>
		<clipPath id="clip48_3">
			<rect id="Календарь" width="24.000000" height="24.000000" fill="white" fill-opacity="0"/>
		</clipPath>
	</defs>
	<g clip-path="url(#clip48_3)">
		<rect id="rect" x="2.000000" y="2.000000" rx="2.000000" width="20.000000" height="20.000000" fill="#000000" fill-opacity="0"/>
		<rect id="rect" x="2.000000" y="2.000000" rx="2.000000" width="20.000000" height="20.000000" stroke="#8264FE" stroke-opacity="1.000000" stroke-width="1.500000" stroke-linejoin="round"/>
		<path id="path" d="M2.02002 7.72998L2 7.75C1.57996 7.75 1.25 7.41998 1.25 7C1.25 6.58002 1.57996 6.25 2 6.25L2.02002 6.27002L2.02002 7.72998ZM21.98 6.27002L22 6.25C22.42 6.25 22.75 6.58002 22.75 7C22.75 7.41998 22.42 7.75 22 7.75L21.98 7.72998L21.98 6.27002Z" fill="#000000" fill-opacity="0" fill-rule="nonzero"/>
		<path id="path" d="M2 7L22 7" stroke="#8264FE" stroke-opacity="1.000000" stroke-width="1.500000" stroke-linejoin="round" stroke-linecap="round"/>
		<path id="line" d="M21.27 5.52002L21.25 5.5C21.25 5.08002 21.58 4.75 22 4.75C22.42 4.75 22.75 5.08002 22.75 5.5L22.73 5.52002L21.27 5.52002ZM22.73 11.48L22.75 11.5C22.75 11.92 22.42 12.25 22 12.25C21.58 12.25 21.25 11.92 21.25 11.5L21.27 11.48L22.73 11.48Z" fill="#000000" fill-opacity="0" fill-rule="nonzero"/>
		<path id="line" d="M22 5.5L22 11.5" stroke="#8264FE" stroke-opacity="1.000000" stroke-width="1.500000" stroke-linejoin="round"/>
		<path id="path" d="M6.02002 11.73L6 11.75C5.57996 11.75 5.25 11.42 5.25 11C5.25 10.58 5.57996 10.25 6 10.25L6.02002 10.27L6.02002 11.73ZM7.97998 10.27L8 10.25C8.42004 10.25 8.75 10.58 8.75 11C8.75 11.42 8.42004 11.75 8 11.75L7.97998 11.73L7.97998 10.27Z" fill="#000000" fill-opacity="0" fill-rule="nonzero"/>
		<path id="path" d="M6 11L8 11" stroke="#8264FE" stroke-opacity="1.000000" stroke-width="1.500000" stroke-linejoin="round" stroke-linecap="round"/>
		<path id="path" d="M11.02 11.73L11 11.75C10.58 11.75 10.25 11.42 10.25 11C10.25 10.58 10.58 10.25 11 10.25L11.02 10.27L11.02 11.73ZM12.98 10.27L13 10.25C13.42 10.25 13.75 10.58 13.75 11C13.75 11.42 13.42 11.75 13 11.75L12.98 11.73L12.98 10.27Z" fill="#000000" fill-opacity="0" fill-rule="nonzero"/>
		<path id="path" d="M11 11L13 11" stroke="#8264FE" stroke-opacity="1.000000" stroke-width="1.500000" stroke-linejoin="round" stroke-linecap="round"/>
		<path id="path" d="M16.02 11.73L16 11.75C15.58 11.75 15.25 11.42 15.25 11C15.25 10.58 15.58 10.25 16 10.25L16.02 10.27L16.02 11.73ZM17.98 10.27L18 10.25C18.42 10.25 18.75 10.58 18.75 11C18.75 11.42 18.42 11.75 18 11.75L17.98 11.73L17.98 10.27Z" fill="#000000" fill-opacity="0" fill-rule="nonzero"/>
		<path id="path" d="M16 11L18 11" stroke="#8264FE" stroke-opacity="1.000000" stroke-width="1.500000" stroke-linejoin="round" stroke-linecap="round"/>
		<path id="path" d="M6.02002 15.23L6 15.25C5.57996 15.25 5.25 14.92 5.25 14.5C5.25 14.08 5.57996 13.75 6 13.75L6.02002 13.77L6.02002 15.23ZM7.97998 13.77L8 13.75C8.42004 13.75 8.75 14.08 8.75 14.5C8.75 14.92 8.42004 15.25 8 15.25L7.97998 15.23L7.97998 13.77Z" fill="#000000" fill-opacity="0" fill-rule="nonzero"/>
		<path id="path" d="M6 14.5L8 14.5" stroke="#8264FE" stroke-opacity="1.000000" stroke-width="1.500000" stroke-linejoin="round" stroke-linecap="round"/>
		<path id="path" d="M11.02 15.23L11 15.25C10.58 15.25 10.25 14.92 10.25 14.5C10.25 14.08 10.58 13.75 11 13.75L11.02 13.77L11.02 15.23ZM12.98 13.77L13 13.75C13.42 13.75 13.75 14.08 13.75 14.5C13.75 14.92 13.42 15.25 13 15.25L12.98 15.23L12.98 13.77Z" fill="#000000" fill-opacity="0" fill-rule="nonzero"/>
		<path id="path" d="M11 14.5L13 14.5" stroke="#8264FE" stroke-opacity="1.000000" stroke-width="1.500000" stroke-linejoin="round" stroke-linecap="round"/>
		<path id="path" d="M16.02 15.23L16 15.25C15.58 15.25 15.25 14.92 15.25 14.5C15.25 14.08 15.58 13.75 16 13.75L16.02 13.77L16.02 15.23ZM17.98 13.77L18 13.75C18.42 13.75 18.75 14.08 18.75 14.5C18.75 14.92 18.42 15.25 18 15.25L17.98 15.23L17.98 13.77Z" fill="#000000" fill-opacity="0" fill-rule="nonzero"/>
		<path id="path" d="M16 14.5L18 14.5" stroke="#8264FE" stroke-opacity="1.000000" stroke-width="1.500000" stroke-linejoin="round" stroke-linecap="round"/>
		<path id="path" d="M6.02002 18.73L6 18.75C5.57996 18.75 5.25 18.42 5.25 18C5.25 17.58 5.57996 17.25 6 17.25L6.02002 17.27L6.02002 18.73ZM7.97998 17.27L8 17.25C8.42004 17.25 8.75 17.58 8.75 18C8.75 18.42 8.42004 18.75 8 18.75L7.97998 18.73L7.97998 17.27Z" fill="#000000" fill-opacity="0" fill-rule="nonzero"/>
		<path id="path" d="M6 18L8 18" stroke="#8264FE" stroke-opacity="1.000000" stroke-width="1.500000" stroke-linejoin="round" stroke-linecap="round"/>
		<path id="path" d="M11.02 18.73L11 18.75C10.58 18.75 10.25 18.42 10.25 18C10.25 17.58 10.58 17.25 11 17.25L11.02 17.27L11.02 18.73ZM12.98 17.27L13 17.25C13.42 17.25 13.75 17.58 13.75 18C13.75 18.42 13.42 18.75 13 18.75L12.98 18.73L12.98 17.27Z" fill="#000000" fill-opacity="0" fill-rule="nonzero"/>
		<path id="path" d="M11 18L13 18" stroke="#8264FE" stroke-opacity="1.000000" stroke-width="1.500000" stroke-linejoin="round" stroke-linecap="round"/>
		<path id="path" d="M16.02 18.73L16 18.75C15.58 18.75 15.25 18.42 15.25 18C15.25 17.58 15.58 17.25 16 17.25L16.02 17.27L16.02 18.73ZM17.98 17.27L18 17.25C18.42 17.25 18.75 17.58 18.75 18C18.75 18.42 18.42 18.75 18 18.75L17.98 18.73L17.98 17.27Z" fill="#000000" fill-opacity="0" fill-rule="nonzero"/>
		<path id="path" d="M16 18L18 18" stroke="#8264FE" stroke-opacity="1.000000" stroke-width="1.500000" stroke-linejoin="round" stroke-linecap="round"/>
		<path id="line" d="M1.27002 5.52002L1.25 5.5C1.25 5.08002 1.57996 4.75 2 4.75C2.42004 4.75 2.75 5.08002 2.75 5.5L2.72998 5.52002L1.27002 5.52002ZM2.72998 11.48L2.75 11.5C2.75 11.92 2.42004 12.25 2 12.25C1.57996 12.25 1.25 11.92 1.25 11.5L1.27002 11.48L2.72998 11.48Z" fill="#000000" fill-opacity="0" fill-rule="nonzero"/>
		<path id="line" d="M2 5.5L2 11.5" stroke="#8264FE" stroke-opacity="1.000000" stroke-width="1.500000" stroke-linejoin="round"/>
	</g>
</svg>
